<?xml version="1.0" encoding="utf-8" standalone="no"?>
<!DOCTYPE svg PUBLIC "-//W3C//DTD SVG 1.1//EN"
  "http://www.w3.org/Graphics/SVG/1.1/DTD/svg11.dtd">
<svg xmlns:xlink="http://www.w3.org/1999/xlink" width="565.339453pt" height="254.603844pt" viewBox="0 0 565.339453 254.603844" xmlns="http://www.w3.org/2000/svg" version="1.1">
 <metadata>
  <rdf:RDF xmlns:dc="http://purl.org/dc/elements/1.1/" xmlns:cc="http://creativecommons.org/ns#" xmlns:rdf="http://www.w3.org/1999/02/22-rdf-syntax-ns#">
   <cc:Work>
    <dc:type rdf:resource="http://purl.org/dc/dcmitype/StillImage"/>
    <dc:date>2026-10-03T14:46:29.671544</dc:date>
    <dc:format>image/svg+xml</dc:format>
    <dc:creator>
     <cc:Agent>
      <dc:title>Matplotlib v3.11.2, https://matplotlib.org/</dc:title>
     </cc:Agent>
    </dc:creator>
   </cc:Work>
  </rdf:RDF>
 </metadata>
 <defs>
  <style type="text/css">*{stroke-linejoin: round; stroke-linecap: butt}</style>
 </defs>
 <g id="figure_1">
  <g id="patch_1">
   <path d="M 0 254.603844 
L 565.339453 254.603844 
L 565.339453 0 
L 0 0 
z
" style="fill: #ffffff"/>
  </g>
  <g id="axes_1">
   <g id="patch_2">
    <path d="M 49.683984 212.204625 
L 551.883984 212.204625 
L 551.883984 40.340625 
L 49.683984 40.340625 
z
" style="fill: #ffffff"/>
   </g>
   <g id="matplotlib.axis_1">
    <g id="xtick_1">
     <g id="line2d_1">
      <path d="M 49.683984 212.204625 
L 49.683984 40.340625 
" clip-path="url(#p9a4205e0fe)" style="fill: none; stroke: #ecebe7; stroke-width: 0.8; stroke-linecap: square"/>
     </g>
     <g id="line2d_2">
      <defs>
       <path id="m4ff23cd9fb" d="M 0 0 
L 0 3.5 
" style="stroke: #6b6a66; stroke-width: 0.8"/>
      </defs>
      <g>
       <use xlink:href="#m4ff23cd9fb" x="49.683984" y="212.204625" style="fill: #6b6a66; stroke: #6b6a66; stroke-width: 0.8"/>
      </g>
     </g>
     <g id="text_1">
      <!-- 0 -->
      <g style="fill: #6b6a66" transform="translate(46.529297 228.892125) scale(0.1 -0.1)">
       <defs>
        <path id="Inter-Regular-53d" d="M 2019 -63 
Q 1500 -63 1134 218 
Q 769 500 575 1033 
Q 381 1566 381 2325 
Q 381 3081 576 3615 
Q 772 4150 1137 4434 
Q 1503 4719 2019 4719 
Q 2534 4719 2901 4434 
Q 3269 4150 3462 3615 
Q 3656 3081 3656 2325 
Q 3656 1569 3464 1034 
Q 3272 500 2906 218 
Q 2541 -63 2019 -63 
z
M 2019 456 
Q 2359 456 2596 678 
Q 2834 900 2959 1317 
Q 3084 1734 3084 2325 
Q 3084 2919 2959 3339 
Q 2834 3759 2596 3981 
Q 2359 4203 2019 4203 
Q 1678 4203 1440 3979 
Q 1203 3756 1078 3337 
Q 953 2919 953 2325 
Q 953 1734 1078 1317 
Q 1203 900 1440 678 
Q 1678 456 2019 456 
z
" transform="scale(0.015625)"/>
       </defs>
       <use xlink:href="#Inter-Regular-53d"/>
      </g>
     </g>
    </g>
    <g id="xtick_2">
     <g id="line2d_3">
      <path d="M 133.383984 212.204625 
L 133.383984 40.340625 
" clip-path="url(#p9a4205e0fe)" style="fill: none; stroke: #ecebe7; stroke-width: 0.8; stroke-linecap: square"/>
     </g>
     <g id="line2d_4">
      <g>
       <use xlink:href="#m4ff23cd9fb" x="133.383984" y="212.204625" style="fill: #6b6a66; stroke: #6b6a66; stroke-width: 0.8"/>
      </g>
     </g>
     <g id="text_2">
      <!-- 10 -->
      <g style="fill: #6b6a66" transform="translate(128.195703 228.892125) scale(0.1 -0.1)">
       <defs>
        <path id="Inter-Regular-53e" d="M 2041 4656 
L 2041 0 
L 1456 0 
L 1456 4106 
L 1425 4106 
L 300 3272 
L 300 3909 
L 1313 4656 
L 2041 4656 
z
" transform="scale(0.015625)"/>
       </defs>
       <use xlink:href="#Inter-Regular-53e"/>
       <use xlink:href="#Inter-Regular-53d" transform="translate(40.671875 0)"/>
      </g>
     </g>
    </g>
    <g id="xtick_3">
     <g id="line2d_5">
      <path d="M 217.083984 212.204625 
L 217.083984 40.340625 
" clip-path="url(#p9a4205e0fe)" style="fill: none; stroke: #ecebe7; stroke-width: 0.8; stroke-linecap: square"/>
     </g>
     <g id="line2d_6">
      <g>
       <use xlink:href="#m4ff23cd9fb" x="217.083984" y="212.204625" style="fill: #6b6a66; stroke: #6b6a66; stroke-width: 0.8"/>
      </g>
     </g>
     <g id="text_3">
      <!-- 20 -->
      <g style="fill: #6b6a66" transform="translate(210.880078 228.892125) scale(0.1 -0.1)">
       <defs>
        <path id="Inter-Regular-53f" d="M 481 0 
L 481 428 
L 2028 2106 
Q 2288 2388 2459 2600 
Q 2631 2813 2718 3005 
Q 2806 3197 2806 3413 
Q 2806 3656 2690 3834 
Q 2575 4013 2378 4108 
Q 2181 4203 1931 4203 
Q 1666 4203 1470 4095 
Q 1275 3988 1169 3792 
Q 1063 3597 1063 3334 
L 494 3334 
Q 494 3747 684 4059 
Q 875 4372 1203 4545 
Q 1531 4719 1947 4719 
Q 2363 4719 2683 4545 
Q 3003 4372 3186 4078 
Q 3369 3784 3369 3419 
Q 3369 3166 3278 2927 
Q 3188 2688 2959 2384 
Q 2731 2081 2319 1644 
L 1300 559 
L 1300 522 
L 3447 522 
L 3447 0 
L 481 0 
z
" transform="scale(0.015625)"/>
       </defs>
       <use xlink:href="#Inter-Regular-53f"/>
       <use xlink:href="#Inter-Regular-53d" transform="translate(60.984375 0)"/>
      </g>
     </g>
    </g>
    <g id="xtick_4">
     <g id="line2d_7">
      <path d="M 300.783984 212.204625 
L 300.783984 40.340625 
" clip-path="url(#p9a4205e0fe)" style="fill: none; stroke: #ecebe7; stroke-width: 0.8; stroke-linecap: square"/>
     </g>
     <g id="line2d_8">
      <g>
       <use xlink:href="#m4ff23cd9fb" x="300.783984" y="212.204625" style="fill: #6b6a66; stroke: #6b6a66; stroke-width: 0.8"/>
      </g>
     </g>
     <g id="text_4">
      <!-- 30 -->
      <g style="fill: #6b6a66" transform="translate(294.541016 228.892125) scale(0.1 -0.1)">
       <defs>
        <path id="Inter-Regular-541" d="M 1984 -63 
Q 1528 -63 1175 93 
Q 822 250 614 528 
Q 406 806 391 1175 
L 991 1175 
Q 1009 953 1142 792 
Q 1275 631 1492 545 
Q 1709 459 1975 459 
Q 2269 459 2495 561 
Q 2722 663 2853 847 
Q 2984 1031 2984 1272 
Q 2984 1525 2857 1717 
Q 2731 1909 2490 2018 
Q 2250 2128 1903 2128 
L 1525 2128 
L 1525 2644 
L 1903 2644 
Q 2175 2644 2383 2742 
Q 2591 2841 2706 3019 
Q 2822 3197 2822 3438 
Q 2822 3669 2720 3841 
Q 2619 4013 2431 4108 
Q 2244 4203 1991 4203 
Q 1753 4203 1545 4117 
Q 1338 4031 1205 3872 
Q 1072 3713 1063 3484 
L 491 3484 
Q 503 3850 709 4128 
Q 916 4406 1255 4562 
Q 1594 4719 2003 4719 
Q 2438 4719 2752 4544 
Q 3066 4369 3234 4084 
Q 3403 3800 3403 3469 
Q 3403 3075 3195 2800 
Q 2988 2525 2631 2419 
L 2631 2381 
Q 2928 2334 3139 2181 
Q 3350 2028 3461 1793 
Q 3572 1559 3572 1266 
Q 3572 884 3365 584 
Q 3159 284 2800 110 
Q 2441 -63 1984 -63 
z
" transform="scale(0.015625)"/>
       </defs>
       <use xlink:href="#Inter-Regular-541"/>
       <use xlink:href="#Inter-Regular-53d" transform="translate(61.765625 0)"/>
      </g>
     </g>
    </g>
    <g id="xtick_5">
     <g id="line2d_9">
      <path d="M 384.483984 212.204625 
L 384.483984 40.340625 
" clip-path="url(#p9a4205e0fe)" style="fill: none; stroke: #ecebe7; stroke-width: 0.8; stroke-linecap: square"/>
     </g>
     <g id="line2d_10">
      <g>
       <use xlink:href="#m4ff23cd9fb" x="384.483984" y="212.204625" style="fill: #6b6a66; stroke: #6b6a66; stroke-width: 0.8"/>
      </g>
     </g>
     <g id="text_5">
      <!-- 40 -->
      <g style="fill: #6b6a66" transform="translate(378.099609 228.892125) scale(0.1 -0.1)">
       <defs>
        <path id="Inter-Regular-542" d="M 375 947 
L 375 1431 
L 2413 4656 
L 2772 4656 
L 2772 3913 
L 2531 3913 
L 1009 1506 
L 1009 1469 
L 3766 1469 
L 3766 947 
L 375 947 
z
M 2566 0 
L 2566 1091 
L 2569 1319 
L 2569 4656 
L 3134 4656 
L 3134 0 
L 2566 0 
z
" transform="scale(0.015625)"/>
       </defs>
       <use xlink:href="#Inter-Regular-542"/>
       <use xlink:href="#Inter-Regular-53d" transform="translate(64.59375 0)"/>
      </g>
     </g>
    </g>
    <g id="xtick_6">
     <g id="line2d_11">
      <path d="M 468.183984 212.204625 
L 468.183984 40.340625 
" clip-path="url(#p9a4205e0fe)" style="fill: none; stroke: #ecebe7; stroke-width: 0.8; stroke-linecap: square"/>
     </g>
     <g id="line2d_12">
      <g>
       <use xlink:href="#m4ff23cd9fb" x="468.183984" y="212.204625" style="fill: #6b6a66; stroke: #6b6a66; stroke-width: 0.8"/>
      </g>
     </g>
     <g id="text_6">
      <!-- 50 -->
      <g style="fill: #6b6a66" transform="translate(462.062891 228.892125) scale(0.1 -0.1)">
       <defs>
        <path id="Inter-Regular-543" d="M 1863 -63 
Q 1453 -63 1128 98 
Q 803 259 609 539 
Q 416 819 400 1175 
L 975 1175 
Q 994 969 1116 806 
Q 1238 644 1433 551 
Q 1628 459 1863 459 
Q 2144 459 2364 590 
Q 2584 722 2709 953 
Q 2834 1184 2834 1478 
Q 2834 1778 2703 2015 
Q 2572 2253 2345 2389 
Q 2119 2525 1825 2525 
Q 1609 2525 1387 2456 
Q 1166 2388 1028 2281 
L 472 2350 
L 747 4656 
L 3197 4656 
L 3197 4134 
L 1247 4134 
L 1088 2775 
L 1113 2775 
Q 1256 2894 1475 2970 
Q 1694 3047 1934 3047 
Q 2253 3047 2523 2931 
Q 2794 2816 2994 2605 
Q 3194 2394 3305 2109 
Q 3416 1825 3416 1488 
Q 3416 1041 3214 691 
Q 3013 341 2663 139 
Q 2313 -63 1863 -63 
z
" transform="scale(0.015625)"/>
       </defs>
       <use xlink:href="#Inter-Regular-543"/>
       <use xlink:href="#Inter-Regular-53d" transform="translate(59.328125 0)"/>
      </g>
     </g>
    </g>
    <g id="xtick_7">
     <g id="line2d_13">
      <path d="M 551.883984 212.204625 
L 551.883984 40.340625 
" clip-path="url(#p9a4205e0fe)" style="fill: none; stroke: #ecebe7; stroke-width: 0.8; stroke-linecap: square"/>
     </g>
     <g id="line2d_14">
      <g>
       <use xlink:href="#m4ff23cd9fb" x="551.883984" y="212.204625" style="fill: #6b6a66; stroke: #6b6a66; stroke-width: 0.8"/>
      </g>
     </g>
     <g id="text_7">
      <!-- 60 -->
      <g style="fill: #6b6a66" transform="translate(545.628516 228.892125) scale(0.1 -0.1)">
       <defs>
        <path id="Inter-Regular-545" d="M 2019 -63 
Q 1728 -63 1437 43 
Q 1147 150 908 400 
Q 669 650 525 1078 
Q 381 1506 381 2150 
Q 381 2766 498 3242 
Q 616 3719 839 4048 
Q 1063 4378 1378 4548 
Q 1694 4719 2091 4719 
Q 2481 4719 2790 4562 
Q 3100 4406 3297 4128 
Q 3494 3850 3550 3484 
L 2969 3484 
Q 2891 3788 2672 3991 
Q 2453 4194 2091 4194 
Q 1734 4194 1476 3984 
Q 1219 3775 1081 3379 
Q 944 2984 944 2425 
L 981 2425 
Q 1106 2619 1281 2758 
Q 1456 2897 1672 2970 
Q 1888 3044 2128 3044 
Q 2528 3044 2859 2847 
Q 3191 2650 3389 2301 
Q 3588 1953 3588 1503 
Q 3588 1069 3394 714 
Q 3200 359 2847 148 
Q 2494 -63 2019 -63 
z
M 2019 459 
Q 2300 459 2525 600 
Q 2750 741 2881 977 
Q 3013 1213 3013 1503 
Q 3013 1788 2886 2020 
Q 2759 2253 2537 2390 
Q 2316 2528 2034 2528 
Q 1822 2528 1639 2445 
Q 1456 2363 1318 2217 
Q 1181 2072 1104 1886 
Q 1028 1700 1028 1497 
Q 1028 1222 1156 986 
Q 1284 750 1509 604 
Q 1734 459 2019 459 
z
" transform="scale(0.015625)"/>
       </defs>
       <use xlink:href="#Inter-Regular-545"/>
       <use xlink:href="#Inter-Regular-53d" transform="translate(62.015625 0)"/>
      </g>
     </g>
    </g>
    <g id="text_8">
     <!-- Time (minutes) -->
     <g style="fill: #3d3d3a" transform="translate(265.355859 244.991734) scale(0.1 -0.1)">
      <defs>
       <path id="Inter-Regular-19b" d="M 306 4131 
L 306 4656 
L 3825 4656 
L 3825 4131 
L 2366 4131 
L 2366 0 
L 1772 0 
L 1772 4131 
L 306 4131 
z
" transform="scale(0.015625)"/>
       <path id="Inter-Regular-2b1" d="M 494 0 
L 494 3494 
L 1056 3494 
L 1056 0 
L 494 0 
z
M 778 4066 
Q 619 4066 503 4175 
Q 387 4284 387 4438 
Q 387 4594 503 4701 
Q 619 4809 778 4809 
Q 940 4809 1056 4701 
Q 1172 4594 1172 4438 
Q 1172 4284 1056 4175 
Q 940 4066 778 4066 
z
" transform="scale(0.015625)"/>
       <path id="Inter-Regular-2fe" d="M 494 0 
L 494 3494 
L 1041 3494 
L 1044 2713 
L 1000 2713 
Q 1072 2997 1226 3183 
Q 1381 3369 1589 3462 
Q 1797 3556 2022 3556 
Q 2403 3556 2639 3322 
Q 2875 3088 2944 2706 
L 2869 2706 
Q 2931 2969 3097 3159 
Q 3263 3350 3498 3453 
Q 3734 3556 4013 3556 
Q 4316 3556 4566 3425 
Q 4816 3294 4964 3028 
Q 5113 2763 5113 2356 
L 5113 0 
L 4550 0 
L 4550 2341 
Q 4550 2719 4337 2881 
Q 4125 3044 3844 3044 
Q 3609 3044 3439 2945 
Q 3269 2847 3176 2675 
Q 3084 2503 3084 2281 
L 3084 0 
L 2522 0 
L 2522 2397 
Q 2522 2688 2328 2866 
Q 2134 3044 1838 3044 
Q 1634 3044 1454 2948 
Q 1275 2853 1165 2665 
Q 1056 2478 1056 2200 
L 1056 0 
L 494 0 
z
" transform="scale(0.015625)"/>
       <path id="Inter-Regular-266" d="M 1963 -75 
Q 1456 -75 1089 150 
Q 722 375 523 778 
Q 325 1181 325 1719 
Q 325 2256 519 2665 
Q 713 3075 1067 3306 
Q 1422 3538 1897 3538 
Q 2175 3538 2445 3445 
Q 2716 3353 2936 3148 
Q 3156 2944 3287 2609 
Q 3419 2275 3419 1791 
L 3419 1556 
L 706 1556 
L 706 2031 
L 3116 2031 
L 2853 1856 
Q 2853 2200 2745 2467 
Q 2638 2734 2425 2886 
Q 2213 3038 1897 3038 
Q 1581 3038 1356 2883 
Q 1131 2728 1012 2479 
Q 894 2231 894 1947 
L 894 1631 
Q 894 1244 1028 973 
Q 1163 703 1405 564 
Q 1647 425 1966 425 
Q 2172 425 2340 484 
Q 2509 544 2631 664 
Q 2753 784 2819 963 
L 3363 813 
Q 3281 550 3087 350 
Q 2894 150 2608 37 
Q 2322 -75 1963 -75 
z
" transform="scale(0.015625)"/>
       <path id="Inter-Regular-6f1" transform="scale(0.015625)"/>
       <path id="Inter-Regular-59d" d="M 681 1897 
Q 681 2406 786 2964 
Q 891 3522 1072 4039 
Q 1253 4556 1488 4941 
L 2034 4941 
Q 1794 4450 1617 3919 
Q 1441 3388 1347 2870 
Q 1253 2353 1253 1897 
Q 1253 1481 1336 1056 
Q 1419 631 1592 157 
Q 1766 -316 2034 -872 
L 1488 -872 
Q 1091 -194 886 509 
Q 681 1213 681 1897 
z
" transform="scale(0.015625)"/>
       <path id="Inter-Regular-305" d="M 1056 2094 
L 1056 0 
L 494 0 
L 494 3494 
L 1034 3494 
L 1038 2647 
L 959 2647 
Q 1119 3131 1414 3334 
Q 1709 3538 2106 3538 
Q 2459 3538 2725 3392 
Q 2991 3247 3139 2955 
Q 3288 2663 3288 2219 
L 3288 0 
L 2725 0 
L 2725 2172 
Q 2725 2575 2514 2803 
Q 2303 3031 1938 3031 
Q 1688 3031 1488 2922 
Q 1288 2813 1172 2603 
Q 1056 2394 1056 2094 
z
" transform="scale(0.015625)"/>
       <path id="Inter-Regular-393" d="M 1678 -44 
Q 1325 -44 1058 101 
Q 791 247 642 540 
Q 494 834 494 1275 
L 494 3494 
L 1056 3494 
L 1056 1322 
Q 1056 919 1268 691 
Q 1481 463 1847 463 
Q 2097 463 2295 572 
Q 2494 681 2609 892 
Q 2725 1103 2725 1400 
L 2725 3494 
L 3291 3494 
L 3291 0 
L 2747 0 
L 2747 847 
L 2822 847 
Q 2659 356 2361 156 
Q 2063 -44 1678 -44 
z
" transform="scale(0.015625)"/>
       <path id="Inter-Regular-379" d="M 1869 3494 
L 1869 3013 
L 63 3013 
L 63 3494 
L 1869 3494 
z
M 588 4325 
L 1150 4325 
L 1150 906 
Q 1150 672 1245 564 
Q 1341 456 1563 456 
Q 1616 456 1698 468 
Q 1781 481 1850 494 
L 1966 19 
Q 1878 -13 1767 -28 
Q 1656 -44 1547 -44 
Q 1094 -44 841 195 
Q 588 434 588 863 
L 588 4325 
z
" transform="scale(0.015625)"/>
       <path id="Inter-Regular-367" d="M 1681 -75 
Q 1322 -75 1042 29 
Q 763 134 581 340 
Q 400 547 338 847 
L 872 975 
Q 947 688 1155 553 
Q 1363 419 1675 419 
Q 2041 419 2258 575 
Q 2475 731 2475 947 
Q 2475 1128 2348 1248 
Q 2222 1369 1963 1428 
L 1381 1566 
Q 906 1678 675 1914 
Q 444 2150 444 2519 
Q 444 2819 612 3048 
Q 781 3278 1073 3408 
Q 1366 3538 1738 3538 
Q 2097 3538 2348 3430 
Q 2600 3322 2758 3133 
Q 2916 2944 2994 2697 
L 2484 2566 
Q 2413 2753 2245 2906 
Q 2078 3059 1741 3059 
Q 1428 3059 1220 2915 
Q 1013 2772 1013 2553 
Q 1013 2359 1153 2242 
Q 1294 2125 1600 2053 
L 2128 1928 
Q 2603 1816 2831 1580 
Q 3059 1344 3059 984 
Q 3059 678 2886 439 
Q 2713 200 2402 62 
Q 2091 -75 1681 -75 
z
" transform="scale(0.015625)"/>
       <path id="Inter-Regular-59e" d="M 300 -872 
Q 578 -300 750 176 
Q 922 653 1001 1075 
Q 1081 1497 1081 1897 
Q 1081 2353 987 2870 
Q 894 3388 719 3919 
Q 544 4450 300 4941 
L 847 4941 
Q 1081 4556 1264 4039 
Q 1447 3522 1550 2962 
Q 1653 2403 1653 1897 
Q 1653 1200 1445 497 
Q 1238 -206 847 -872 
L 300 -872 
z
" transform="scale(0.015625)"/>
      </defs>
      <use xlink:href="#Inter-Regular-19b"/>
      <use xlink:href="#Inter-Regular-2b1" transform="translate(64.546875 0)"/>
      <use xlink:href="#Inter-Regular-2fe" transform="translate(88.765625 0)"/>
      <use xlink:href="#Inter-Regular-266" transform="translate(176.359375 0)"/>
      <use xlink:href="#Inter-Regular-6f1" transform="translate(234.65625 0)"/>
      <use xlink:href="#Inter-Regular-59d" transform="translate(262.78125 0)"/>
      <use xlink:href="#Inter-Regular-2fe" transform="translate(299.25 0)"/>
      <use xlink:href="#Inter-Regular-2b1" transform="translate(386.84375 0)"/>
      <use xlink:href="#Inter-Regular-305" transform="translate(411.0625 0)"/>
      <use xlink:href="#Inter-Regular-393" transform="translate(470.140625 0)"/>
      <use xlink:href="#Inter-Regular-379" transform="translate(529.265625 0)"/>
      <use xlink:href="#Inter-Regular-266" transform="translate(561.015625 0)"/>
      <use xlink:href="#Inter-Regular-367" transform="translate(619.3125 0)"/>
      <use xlink:href="#Inter-Regular-59e" transform="translate(672.09375 0)"/>
     </g>
    </g>
   </g>
   <g id="matplotlib.axis_2">
    <g id="ytick_1">
     <g id="line2d_15">
      <path d="M 49.683984 212.204625 
L 551.883984 212.204625 
" clip-path="url(#p9a4205e0fe)" style="fill: none; stroke: #ecebe7; stroke-width: 0.8; stroke-linecap: square"/>
     </g>
     <g id="line2d_16">
      <defs>
       <path id="m54770870a6" d="M 0 0 
L -3.5 0 
" style="stroke: #6b6a66; stroke-width: 0.8"/>
      </defs>
      <g>
       <use xlink:href="#m54770870a6" x="49.683984" y="212.204625" style="fill: #6b6a66; stroke: #6b6a66; stroke-width: 0.8"/>
      </g>
     </g>
     <g id="text_9">
      <!-- −60 -->
      <g style="fill: #6b6a66" transform="translate(23.557422 217.048375) scale(0.1 -0.1)">
       <defs>
        <path id="Inter-Regular-600" d="M 3584 2600 
L 3584 2062 
L 656 2062 
L 656 2600 
L 3584 2600 
z
" transform="scale(0.015625)"/>
       </defs>
       <use xlink:href="#Inter-Regular-600"/>
       <use xlink:href="#Inter-Regular-545" transform="translate(66.15625 0)"/>
       <use xlink:href="#Inter-Regular-53d" transform="translate(128.171875 0)"/>
      </g>
     </g>
    </g>
    <g id="ytick_2">
     <g id="line2d_17">
      <path d="M 49.683984 183.560625 
L 551.883984 183.560625 
" clip-path="url(#p9a4205e0fe)" style="fill: none; stroke: #ecebe7; stroke-width: 0.8; stroke-linecap: square"/>
     </g>
     <g id="line2d_18">
      <g>
       <use xlink:href="#m54770870a6" x="49.683984" y="183.560625" style="fill: #6b6a66; stroke: #6b6a66; stroke-width: 0.8"/>
      </g>
     </g>
     <g id="text_10">
      <!-- −40 -->
      <g style="fill: #6b6a66" transform="translate(23.299609 188.404375) scale(0.1 -0.1)">
       <use xlink:href="#Inter-Regular-600"/>
       <use xlink:href="#Inter-Regular-542" transform="translate(66.15625 0)"/>
       <use xlink:href="#Inter-Regular-53d" transform="translate(130.75 0)"/>
      </g>
     </g>
    </g>
    <g id="ytick_3">
     <g id="line2d_19">
      <path d="M 49.683984 154.916625 
L 551.883984 154.916625 
" clip-path="url(#p9a4205e0fe)" style="fill: none; stroke: #ecebe7; stroke-width: 0.8; stroke-linecap: square"/>
     </g>
     <g id="line2d_20">
      <g>
       <use xlink:href="#m54770870a6" x="49.683984" y="154.916625" style="fill: #6b6a66; stroke: #6b6a66; stroke-width: 0.8"/>
      </g>
     </g>
     <g id="text_11">
      <!-- −20 -->
      <g style="fill: #6b6a66" transform="translate(23.998047 159.760375) scale(0.1 -0.1)">
       <use xlink:href="#Inter-Regular-600"/>
       <use xlink:href="#Inter-Regular-53f" transform="translate(62.78125 0)"/>
       <use xlink:href="#Inter-Regular-53d" transform="translate(123.765625 0)"/>
      </g>
     </g>
    </g>
    <g id="ytick_4">
     <g id="line2d_21">
      <path d="M 49.683984 126.272625 
L 551.883984 126.272625 
" clip-path="url(#p9a4205e0fe)" style="fill: none; stroke: #ecebe7; stroke-width: 0.8; stroke-linecap: square"/>
     </g>
     <g id="line2d_22">
      <g>
       <use xlink:href="#m54770870a6" x="49.683984" y="126.272625" style="fill: #6b6a66; stroke: #6b6a66; stroke-width: 0.8"/>
      </g>
     </g>
     <g id="text_12">
      <!-- 0 -->
      <g style="fill: #6b6a66" transform="translate(36.374609 131.116375) scale(0.1 -0.1)">
       <use xlink:href="#Inter-Regular-53d"/>
      </g>
     </g>
    </g>
    <g id="ytick_5">
     <g id="line2d_23">
      <path d="M 49.683984 97.628625 
L 551.883984 97.628625 
" clip-path="url(#p9a4205e0fe)" style="fill: none; stroke: #ecebe7; stroke-width: 0.8; stroke-linecap: square"/>
     </g>
     <g id="line2d_24">
      <g>
       <use xlink:href="#m54770870a6" x="49.683984" y="97.628625" style="fill: #6b6a66; stroke: #6b6a66; stroke-width: 0.8"/>
      </g>
     </g>
     <g id="text_13">
      <!-- 20 -->
      <g style="fill: #6b6a66" transform="translate(30.276172 102.472375) scale(0.1 -0.1)">
       <use xlink:href="#Inter-Regular-53f"/>
       <use xlink:href="#Inter-Regular-53d" transform="translate(60.984375 0)"/>
      </g>
     </g>
    </g>
    <g id="ytick_6">
     <g id="line2d_25">
      <path d="M 49.683984 68.984625 
L 551.883984 68.984625 
" clip-path="url(#p9a4205e0fe)" style="fill: none; stroke: #ecebe7; stroke-width: 0.8; stroke-linecap: square"/>
     </g>
     <g id="line2d_26">
      <g>
       <use xlink:href="#m54770870a6" x="49.683984" y="68.984625" style="fill: #6b6a66; stroke: #6b6a66; stroke-width: 0.8"/>
      </g>
     </g>
     <g id="text_14">
      <!-- 40 -->
      <g style="fill: #6b6a66" transform="translate(29.915234 73.828375) scale(0.1 -0.1)">
       <use xlink:href="#Inter-Regular-542"/>
       <use xlink:href="#Inter-Regular-53d" transform="translate(64.59375 0)"/>
      </g>
     </g>
    </g>
    <g id="ytick_7">
     <g id="line2d_27">
      <path d="M 49.683984 40.340625 
L 551.883984 40.340625 
" clip-path="url(#p9a4205e0fe)" style="fill: none; stroke: #ecebe7; stroke-width: 0.8; stroke-linecap: square"/>
     </g>
     <g id="line2d_28">
      <g>
       <use xlink:href="#m54770870a6" x="49.683984" y="40.340625" style="fill: #6b6a66; stroke: #6b6a66; stroke-width: 0.8"/>
      </g>
     </g>
     <g id="text_15">
      <!-- 60 -->
      <g style="fill: #6b6a66" transform="translate(30.173047 45.184375) scale(0.1 -0.1)">
       <use xlink:href="#Inter-Regular-545"/>
       <use xlink:href="#Inter-Regular-53d" transform="translate(62.015625 0)"/>
      </g>
     </g>
    </g>
    <g id="text_16">
     <!-- Per-minute median, re-centred (µs) -->
     <g style="fill: #3d3d3a" transform="translate(16.8875 209.696844) rotate(-90) scale(0.1 -0.1)">
      <defs>
       <path id="Inter-Regular-177" d="M 563 0 
L 563 4656 
L 2156 4656 
Q 2700 4656 3051 4457 
Q 3403 4259 3573 3925 
Q 3744 3591 3744 3175 
Q 3744 2759 3573 2421 
Q 3403 2084 3053 1884 
Q 2703 1684 2159 1684 
L 1031 1684 
L 1031 2206 
L 2131 2206 
Q 2500 2206 2725 2332 
Q 2950 2459 3051 2679 
Q 3153 2900 3153 3175 
Q 3153 3450 3051 3667 
Q 2950 3884 2723 4009 
Q 2497 4134 2125 4134 
L 1156 4134 
L 1156 0 
L 563 0 
z
" transform="scale(0.015625)"/>
       <path id="Inter-Regular-354" d="M 494 0 
L 494 3494 
L 1038 3494 
L 1038 2956 
L 1075 2956 
Q 1172 3222 1420 3383 
Q 1669 3544 1981 3544 
Q 2044 3544 2130 3541 
Q 2216 3538 2266 3534 
L 2266 2969 
Q 2241 2975 2141 2987 
Q 2041 3000 1928 3000 
Q 1678 3000 1479 2895 
Q 1281 2791 1168 2608 
Q 1056 2425 1056 2188 
L 1056 0 
L 494 0 
z
" transform="scale(0.015625)"/>
       <path id="Inter-Regular-5b3" d="M 2494 2247 
L 2494 1728 
L 450 1728 
L 450 2247 
L 2494 2247 
z
" transform="scale(0.015625)"/>
       <path id="Inter-Regular-255" d="M 1803 -75 
Q 1369 -75 1034 147 
Q 700 369 512 775 
Q 325 1181 325 1738 
Q 325 2291 514 2695 
Q 703 3100 1037 3319 
Q 1372 3538 1806 3538 
Q 2147 3538 2347 3425 
Q 2547 3313 2655 3170 
Q 2763 3028 2819 2934 
L 2863 2934 
L 2863 4656 
L 3425 4656 
L 3425 0 
L 2881 0 
L 2881 541 
L 2819 541 
Q 2763 444 2652 298 
Q 2541 153 2339 39 
Q 2138 -75 1803 -75 
z
M 1888 428 
Q 2206 428 2425 595 
Q 2644 763 2756 1059 
Q 2869 1356 2869 1744 
Q 2869 2131 2758 2420 
Q 2647 2709 2428 2871 
Q 2209 3034 1888 3034 
Q 1556 3034 1336 2862 
Q 1116 2691 1006 2398 
Q 897 2106 897 1744 
Q 897 1378 1008 1079 
Q 1119 781 1341 604 
Q 1563 428 1888 428 
z
" transform="scale(0.015625)"/>
       <path id="Inter-Regular-1fb" d="M 1472 -81 
Q 1141 -81 870 44 
Q 600 169 440 409 
Q 281 650 281 994 
Q 281 1294 400 1481 
Q 519 1669 717 1776 
Q 916 1884 1156 1937 
Q 1397 1991 1641 2022 
Q 1953 2063 2150 2084 
Q 2347 2106 2442 2159 
Q 2538 2213 2538 2341 
L 2538 2359 
Q 2538 2578 2456 2729 
Q 2375 2881 2212 2962 
Q 2050 3044 1806 3044 
Q 1556 3044 1378 2966 
Q 1200 2888 1089 2770 
Q 978 2653 922 2531 
L 381 2709 
Q 516 3028 744 3208 
Q 972 3388 1247 3463 
Q 1522 3538 1791 3538 
Q 1966 3538 2189 3495 
Q 2413 3453 2620 3328 
Q 2828 3203 2964 2958 
Q 3100 2713 3100 2303 
L 3100 0 
L 2547 0 
L 2547 475 
L 2509 475 
Q 2450 353 2319 223 
Q 2188 94 1978 6 
Q 1769 -81 1472 -81 
z
M 1569 416 
Q 1881 416 2097 537 
Q 2313 659 2425 854 
Q 2538 1050 2538 1263 
L 2538 1747 
Q 2503 1706 2387 1673 
Q 2272 1641 2123 1616 
Q 1975 1591 1836 1573 
Q 1697 1556 1616 1547 
Q 1413 1522 1236 1461 
Q 1059 1400 953 1283 
Q 847 1166 847 966 
Q 847 784 940 662 
Q 1034 541 1196 478 
Q 1359 416 1569 416 
z
" transform="scale(0.015625)"/>
       <path id="Inter-Regular-5dd" d="M 400 -1122 
L 675 650 
L 1319 650 
L 831 -1122 
L 400 -1122 
z
" transform="scale(0.015625)"/>
       <path id="Inter-Regular-24a" d="M 1916 -75 
Q 1441 -75 1083 150 
Q 725 375 525 781 
Q 325 1188 325 1725 
Q 325 2272 525 2680 
Q 725 3088 1083 3313 
Q 1441 3538 1916 3538 
Q 2169 3538 2394 3472 
Q 2619 3406 2805 3282 
Q 2991 3159 3125 2979 
Q 3259 2800 3331 2572 
L 2791 2419 
Q 2753 2553 2675 2665 
Q 2597 2778 2486 2861 
Q 2375 2944 2231 2989 
Q 2088 3034 1916 3034 
Q 1566 3034 1341 2851 
Q 1116 2669 1006 2372 
Q 897 2075 897 1725 
Q 897 1381 1006 1086 
Q 1116 791 1341 609 
Q 1566 428 1916 428 
Q 2091 428 2237 475 
Q 2384 522 2498 608 
Q 2613 694 2691 812 
Q 2769 931 2806 1072 
L 3344 919 
Q 3275 684 3139 501 
Q 3003 319 2815 189 
Q 2628 59 2400 -8 
Q 2172 -75 1916 -75 
z
" transform="scale(0.015625)"/>
       <path id="Inter-Regular-397" d="M 494 -1306 
L 494 3494 
L 1056 3494 
L 1056 1375 
Q 1056 1050 1170 844 
Q 1284 638 1476 542 
Q 1669 447 1903 447 
Q 2141 447 2327 544 
Q 2513 641 2620 845 
Q 2728 1050 2728 1375 
L 2728 3494 
L 3291 3494 
L 3291 791 
Q 3291 619 3366 551 
Q 3441 484 3628 484 
L 3719 484 
L 3719 0 
L 3606 0 
Q 3172 0 2956 200 
Q 2741 400 2741 784 
L 2741 1100 
L 2872 1100 
Q 2872 753 2775 529 
Q 2678 306 2526 179 
Q 2375 53 2208 1 
Q 2041 -50 1900 -50 
Q 1759 -50 1592 1 
Q 1425 53 1275 179 
Q 1125 306 1028 529 
Q 931 753 931 1100 
L 1056 1100 
L 1056 -1306 
L 494 -1306 
z
" transform="scale(0.015625)"/>
      </defs>
      <use xlink:href="#Inter-Regular-177"/>
      <use xlink:href="#Inter-Regular-266" transform="translate(63.34375 0)"/>
      <use xlink:href="#Inter-Regular-354" transform="translate(121.640625 0)"/>
      <use xlink:href="#Inter-Regular-5b3" transform="translate(155.328125 0)"/>
      <use xlink:href="#Inter-Regular-2fe" transform="translate(201.328125 0)"/>
      <use xlink:href="#Inter-Regular-2b1" transform="translate(288.921875 0)"/>
      <use xlink:href="#Inter-Regular-305" transform="translate(313.140625 0)"/>
      <use xlink:href="#Inter-Regular-393" transform="translate(372.21875 0)"/>
      <use xlink:href="#Inter-Regular-379" transform="translate(431.34375 0)"/>
      <use xlink:href="#Inter-Regular-266" transform="translate(463.09375 0)"/>
      <use xlink:href="#Inter-Regular-6f1" transform="translate(521.390625 0)"/>
      <use xlink:href="#Inter-Regular-2fe" transform="translate(549.515625 0)"/>
      <use xlink:href="#Inter-Regular-266" transform="translate(637.109375 0)"/>
      <use xlink:href="#Inter-Regular-255" transform="translate(695.40625 0)"/>
      <use xlink:href="#Inter-Regular-2b1" transform="translate(756.640625 0)"/>
      <use xlink:href="#Inter-Regular-1fb" transform="translate(780.859375 0)"/>
      <use xlink:href="#Inter-Regular-305" transform="translate(837.015625 0)"/>
      <use xlink:href="#Inter-Regular-5dd" transform="translate(896.09375 0)"/>
      <use xlink:href="#Inter-Regular-6f1" transform="translate(924.90625 0)"/>
      <use xlink:href="#Inter-Regular-354" transform="translate(953.03125 0)"/>
      <use xlink:href="#Inter-Regular-266" transform="translate(989.015625 0)"/>
      <use xlink:href="#Inter-Regular-5b3" transform="translate(1047.3125 0)"/>
      <use xlink:href="#Inter-Regular-24a" transform="translate(1093.3125 0)"/>
      <use xlink:href="#Inter-Regular-266" transform="translate(1150.4375 0)"/>
      <use xlink:href="#Inter-Regular-305" transform="translate(1208.734375 0)"/>
      <use xlink:href="#Inter-Regular-379" transform="translate(1267.8125 0)"/>
      <use xlink:href="#Inter-Regular-354" transform="translate(1300.53125 0)"/>
      <use xlink:href="#Inter-Regular-266" transform="translate(1336.515625 0)"/>
      <use xlink:href="#Inter-Regular-255" transform="translate(1394.8125 0)"/>
      <use xlink:href="#Inter-Regular-6f1" transform="translate(1456.046875 0)"/>
      <use xlink:href="#Inter-Regular-59d" transform="translate(1484.171875 0)"/>
      <use xlink:href="#Inter-Regular-397" transform="translate(1520.640625 0)"/>
      <use xlink:href="#Inter-Regular-367" transform="translate(1579.234375 0)"/>
      <use xlink:href="#Inter-Regular-59e" transform="translate(1632.015625 0)"/>
     </g>
    </g>
   </g>
   <g id="line2d_29">
    <path d="M 49.683984 126.272625 
L 551.883984 126.272625 
" clip-path="url(#p9a4205e0fe)" style="fill: none; stroke: #6b6a66; stroke-width: 0.8; stroke-linecap: square"/>
   </g>
   <g id="line2d_30">
    <path d="M 53.868984 107.298231 
L 62.238984 111.122205 
L 70.608984 136.718483 
L 78.978984 125.462823 
L 87.348984 144.519677 
L 95.718984 127.61542 
L 104.088984 130.527799 
L 112.458984 119.658117 
L 120.828984 158.672677 
L 129.198984 118.555323 
L 137.568984 125.815145 
L 145.938984 127.273124 
L 154.308984 143.840814 
L 162.678984 114.555188 
L 171.048984 134.448446 
L 179.418984 101.280126 
L 187.788984 90.240729 
L 196.158984 119.486253 
L 204.528984 146.521892 
L 212.898984 121.548621 
L 221.268984 119.095978 
L 229.638984 100.585509 
L 238.008984 121.653171 
L 246.378984 99.514224 
L 254.748984 129.087722 
L 263.118984 152.224913 
L 271.488984 109.264641 
L 279.858984 136.39767 
L 288.228984 153.057021 
L 296.598984 106.186844 
L 304.968984 134.365379 
L 313.338984 154.071018 
L 321.708984 124.109394 
L 330.078984 146.445269 
L 338.448984 141.577938 
L 346.818984 143.994059 
L 355.188984 139.395265 
L 363.558984 111.596263 
L 371.928984 107.591832 
L 380.298984 149.595393 
L 388.668984 119.235618 
L 397.038984 135.363622 
L 405.408984 137.315711 
L 413.778984 123.258668 
L 422.148984 134.693352 
L 430.518984 108.504143 
L 438.888984 144.808981 
L 447.258984 107.286773 
L 455.628984 146.488952 
L 463.998984 124.487495 
L 472.368984 95.363708 
L 480.738984 144.748829 
L 489.108984 135.852002 
L 497.478984 110.592291 
L 505.848984 144.158762 
L 514.218984 90.13761 
L 522.588984 131.383538 
L 530.958984 119.364516 
L 539.328984 98.510252 
L 547.698984 139.832086 
" clip-path="url(#p9a4205e0fe)" style="fill: none; stroke: #a8620a; stroke-width: 1.6; stroke-linecap: square"/>
    <defs>
     <path id="m85937f8504" d="M 0 1.75 
C 0.464105 1.75 0.909265 1.565609 1.237437 1.237437 
C 1.565609 0.909265 1.75 0.464105 1.75 0 
C 1.75 -0.464105 1.565609 -0.909265 1.237437 -1.237437 
C 0.909265 -1.565609 0.464105 -1.75 0 -1.75 
C -0.464105 -1.75 -0.909265 -1.565609 -1.237437 -1.237437 
C -1.565609 -0.909265 -1.75 -0.464105 -1.75 0 
C -1.75 0.464105 -1.565609 0.909265 -1.237437 1.237437 
C -0.909265 1.565609 -0.464105 1.75 0 1.75 
z
" style="stroke: #ffffff"/>
    </defs>
    <g clip-path="url(#p9a4205e0fe)">
     <use xlink:href="#m85937f8504" x="53.868984" y="107.298231" style="fill: #a8620a; stroke: #ffffff"/>
     <use xlink:href="#m85937f8504" x="62.238984" y="111.122205" style="fill: #a8620a; stroke: #ffffff"/>
     <use xlink:href="#m85937f8504" x="70.608984" y="136.718483" style="fill: #a8620a; stroke: #ffffff"/>
     <use xlink:href="#m85937f8504" x="78.978984" y="125.462823" style="fill: #a8620a; stroke: #ffffff"/>
     <use xlink:href="#m85937f8504" x="87.348984" y="144.519677" style="fill: #a8620a; stroke: #ffffff"/>
     <use xlink:href="#m85937f8504" x="95.718984" y="127.61542" style="fill: #a8620a; stroke: #ffffff"/>
     <use xlink:href="#m85937f8504" x="104.088984" y="130.527799" style="fill: #a8620a; stroke: #ffffff"/>
     <use xlink:href="#m85937f8504" x="112.458984" y="119.658117" style="fill: #a8620a; stroke: #ffffff"/>
     <use xlink:href="#m85937f8504" x="120.828984" y="158.672677" style="fill: #a8620a; stroke: #ffffff"/>
     <use xlink:href="#m85937f8504" x="129.198984" y="118.555323" style="fill: #a8620a; stroke: #ffffff"/>
     <use xlink:href="#m85937f8504" x="137.568984" y="125.815145" style="fill: #a8620a; stroke: #ffffff"/>
     <use xlink:href="#m85937f8504" x="145.938984" y="127.273124" style="fill: #a8620a; stroke: #ffffff"/>
     <use xlink:href="#m85937f8504" x="154.308984" y="143.840814" style="fill: #a8620a; stroke: #ffffff"/>
     <use xlink:href="#m85937f8504" x="162.678984" y="114.555188" style="fill: #a8620a; stroke: #ffffff"/>
     <use xlink:href="#m85937f8504" x="171.048984" y="134.448446" style="fill: #a8620a; stroke: #ffffff"/>
     <use xlink:href="#m85937f8504" x="179.418984" y="101.280126" style="fill: #a8620a; stroke: #ffffff"/>
     <use xlink:href="#m85937f8504" x="187.788984" y="90.240729" style="fill: #a8620a; stroke: #ffffff"/>
     <use xlink:href="#m85937f8504" x="196.158984" y="119.486253" style="fill: #a8620a; stroke: #ffffff"/>
     <use xlink:href="#m85937f8504" x="204.528984" y="146.521892" style="fill: #a8620a; stroke: #ffffff"/>
     <use xlink:href="#m85937f8504" x="212.898984" y="121.548621" style="fill: #a8620a; stroke: #ffffff"/>
     <use xlink:href="#m85937f8504" x="221.268984" y="119.095978" style="fill: #a8620a; stroke: #ffffff"/>
     <use xlink:href="#m85937f8504" x="229.638984" y="100.585509" style="fill: #a8620a; stroke: #ffffff"/>
     <use xlink:href="#m85937f8504" x="238.008984" y="121.653171" style="fill: #a8620a; stroke: #ffffff"/>
     <use xlink:href="#m85937f8504" x="246.378984" y="99.514224" style="fill: #a8620a; stroke: #ffffff"/>
     <use xlink:href="#m85937f8504" x="254.748984" y="129.087722" style="fill: #a8620a; stroke: #ffffff"/>
     <use xlink:href="#m85937f8504" x="263.118984" y="152.224913" style="fill: #a8620a; stroke: #ffffff"/>
     <use xlink:href="#m85937f8504" x="271.488984" y="109.264641" style="fill: #a8620a; stroke: #ffffff"/>
     <use xlink:href="#m85937f8504" x="279.858984" y="136.39767" style="fill: #a8620a; stroke: #ffffff"/>
     <use xlink:href="#m85937f8504" x="288.228984" y="153.057021" style="fill: #a8620a; stroke: #ffffff"/>
     <use xlink:href="#m85937f8504" x="296.598984" y="106.186844" style="fill: #a8620a; stroke: #ffffff"/>
     <use xlink:href="#m85937f8504" x="304.968984" y="134.365379" style="fill: #a8620a; stroke: #ffffff"/>
     <use xlink:href="#m85937f8504" x="313.338984" y="154.071018" style="fill: #a8620a; stroke: #ffffff"/>
     <use xlink:href="#m85937f8504" x="321.708984" y="124.109394" style="fill: #a8620a; stroke: #ffffff"/>
     <use xlink:href="#m85937f8504" x="330.078984" y="146.445269" style="fill: #a8620a; stroke: #ffffff"/>
     <use xlink:href="#m85937f8504" x="338.448984" y="141.577938" style="fill: #a8620a; stroke: #ffffff"/>
     <use xlink:href="#m85937f8504" x="346.818984" y="143.994059" style="fill: #a8620a; stroke: #ffffff"/>
     <use xlink:href="#m85937f8504" x="355.188984" y="139.395265" style="fill: #a8620a; stroke: #ffffff"/>
     <use xlink:href="#m85937f8504" x="363.558984" y="111.596263" style="fill: #a8620a; stroke: #ffffff"/>
     <use xlink:href="#m85937f8504" x="371.928984" y="107.591832" style="fill: #a8620a; stroke: #ffffff"/>
     <use xlink:href="#m85937f8504" x="380.298984" y="149.595393" style="fill: #a8620a; stroke: #ffffff"/>
     <use xlink:href="#m85937f8504" x="388.668984" y="119.235618" style="fill: #a8620a; stroke: #ffffff"/>
     <use xlink:href="#m85937f8504" x="397.038984" y="135.363622" style="fill: #a8620a; stroke: #ffffff"/>
     <use xlink:href="#m85937f8504" x="405.408984" y="137.315711" style="fill: #a8620a; stroke: #ffffff"/>
     <use xlink:href="#m85937f8504" x="413.778984" y="123.258668" style="fill: #a8620a; stroke: #ffffff"/>
     <use xlink:href="#m85937f8504" x="422.148984" y="134.693352" style="fill: #a8620a; stroke: #ffffff"/>
     <use xlink:href="#m85937f8504" x="430.518984" y="108.504143" style="fill: #a8620a; stroke: #ffffff"/>
     <use xlink:href="#m85937f8504" x="438.888984" y="144.808981" style="fill: #a8620a; stroke: #ffffff"/>
     <use xlink:href="#m85937f8504" x="447.258984" y="107.286773" style="fill: #a8620a; stroke: #ffffff"/>
     <use xlink:href="#m85937f8504" x="455.628984" y="146.488952" style="fill: #a8620a; stroke: #ffffff"/>
     <use xlink:href="#m85937f8504" x="463.998984" y="124.487495" style="fill: #a8620a; stroke: #ffffff"/>
     <use xlink:href="#m85937f8504" x="472.368984" y="95.363708" style="fill: #a8620a; stroke: #ffffff"/>
     <use xlink:href="#m85937f8504" x="480.738984" y="144.748829" style="fill: #a8620a; stroke: #ffffff"/>
     <use xlink:href="#m85937f8504" x="489.108984" y="135.852002" style="fill: #a8620a; stroke: #ffffff"/>
     <use xlink:href="#m85937f8504" x="497.478984" y="110.592291" style="fill: #a8620a; stroke: #ffffff"/>
     <use xlink:href="#m85937f8504" x="505.848984" y="144.158762" style="fill: #a8620a; stroke: #ffffff"/>
     <use xlink:href="#m85937f8504" x="514.218984" y="90.13761" style="fill: #a8620a; stroke: #ffffff"/>
     <use xlink:href="#m85937f8504" x="522.588984" y="131.383538" style="fill: #a8620a; stroke: #ffffff"/>
     <use xlink:href="#m85937f8504" x="530.958984" y="119.364516" style="fill: #a8620a; stroke: #ffffff"/>
     <use xlink:href="#m85937f8504" x="539.328984" y="98.510252" style="fill: #a8620a; stroke: #ffffff"/>
     <use xlink:href="#m85937f8504" x="547.698984" y="139.832086" style="fill: #a8620a; stroke: #ffffff"/>
    </g>
   </g>
   <g id="line2d_31">
    <path d="M 49.683984 126.457215 
L 551.883984 126.088035 
" clip-path="url(#p9a4205e0fe)" style="fill: none; stroke-dasharray: 4,3; stroke-dashoffset: 0; stroke: #1f1f1d"/>
   </g>
   <g id="patch_3">
    <path d="M 49.683984 212.204625 
L 49.683984 40.340625 
" style="fill: none; stroke: #c9c6bf; stroke-width: 0.8; stroke-linejoin: miter; stroke-linecap: square"/>
   </g>
   <g id="patch_4">
    <path d="M 49.683984 212.204625 
L 551.883984 212.204625 
" style="fill: none; stroke: #c9c6bf; stroke-width: 0.8; stroke-linejoin: miter; stroke-linecap: square"/>
   </g>
   <g id="text_17">
    <!-- linear trend (dashed) +0.3 ± 5.5 µs per hour — no drift -->
    <g style="fill: #1f1f1d" transform="translate(317.668828 60.391425) scale(0.09 -0.09)">
     <defs>
      <path id="Inter-Regular-2e0" d="M 1056 4656 
L 1056 0 
L 494 0 
L 494 4656 
L 1056 4656 
z
" transform="scale(0.015625)"/>
      <path id="Inter-Regular-29e" d="M 1056 2094 
L 1056 0 
L 494 0 
L 494 4656 
L 1056 4656 
L 1056 2647 
L 959 2647 
Q 1119 3131 1414 3334 
Q 1709 3538 2106 3538 
Q 2459 3538 2726 3392 
Q 2994 3247 3142 2955 
Q 3291 2663 3291 2219 
L 3291 0 
L 2725 0 
L 2725 2172 
Q 2725 2575 2514 2803 
Q 2303 3031 1938 3031 
Q 1688 3031 1488 2922 
Q 1288 2813 1172 2603 
Q 1056 2394 1056 2094 
z
" transform="scale(0.015625)"/>
      <path id="Inter-Regular-5ff" d="M 1853 797 
L 1853 3815 
L 2381 3815 
L 2381 797 
L 1853 797 
z
M 609 2059 
L 609 2556 
L 3625 2556 
L 3625 2059 
L 609 2059 
z
" transform="scale(0.015625)"/>
      <path id="Inter-Regular-5de" d="M 922 -41 
Q 747 -41 623 82 
Q 500 206 500 381 
Q 500 556 623 679 
Q 747 803 922 803 
Q 1097 803 1220 679 
Q 1344 556 1344 381 
Q 1344 206 1220 82 
Q 1097 -41 922 -41 
z
" transform="scale(0.015625)"/>
      <path id="Inter-Regular-603" d="M 644 688 
L 644 1213 
L 3594 1213 
L 3594 688 
L 644 688 
z
M 644 2528 
L 644 3053 
L 3594 3053 
L 3594 2528 
L 644 2528 
z
M 1856 1610 
L 1856 3975 
L 2384 3975 
L 2384 1610 
L 1856 1610 
z
" transform="scale(0.015625)"/>
      <path id="Inter-Regular-34b" d="M 494 -1306 
L 494 3494 
L 1038 3494 
L 1038 2934 
L 1100 2934 
Q 1159 3028 1265 3170 
Q 1372 3313 1572 3425 
Q 1772 3538 2113 3538 
Q 2550 3538 2883 3319 
Q 3216 3100 3405 2695 
Q 3594 2291 3594 1738 
Q 3594 1181 3406 775 
Q 3219 369 2886 147 
Q 2553 -75 2116 -75 
Q 1784 -75 1581 39 
Q 1378 153 1268 298 
Q 1159 444 1100 541 
L 1056 541 
L 1056 -1306 
L 494 -1306 
z
M 2031 428 
Q 2359 428 2579 604 
Q 2800 781 2911 1079 
Q 3022 1378 3022 1744 
Q 3022 2106 2912 2398 
Q 2803 2691 2583 2862 
Q 2363 3034 2031 3034 
Q 1709 3034 1490 2871 
Q 1272 2709 1161 2420 
Q 1050 2131 1050 1744 
Q 1050 1356 1162 1059 
Q 1275 763 1495 595 
Q 1716 428 2031 428 
z
" transform="scale(0.015625)"/>
      <path id="Inter-Regular-316" d="M 1916 -75 
Q 1441 -75 1083 150 
Q 725 375 525 781 
Q 325 1188 325 1725 
Q 325 2272 525 2680 
Q 725 3088 1083 3313 
Q 1441 3538 1916 3538 
Q 2394 3538 2753 3313 
Q 3113 3088 3313 2680 
Q 3513 2272 3513 1725 
Q 3513 1188 3313 781 
Q 3113 375 2753 150 
Q 2394 -75 1916 -75 
z
M 1916 428 
Q 2269 428 2497 609 
Q 2725 791 2834 1086 
Q 2944 1381 2944 1725 
Q 2944 2072 2834 2370 
Q 2725 2669 2497 2851 
Q 2269 3034 1916 3034 
Q 1566 3034 1341 2851 
Q 1116 2669 1006 2372 
Q 897 2075 897 1725 
Q 897 1381 1006 1086 
Q 1116 791 1341 609 
Q 1566 428 1916 428 
z
" transform="scale(0.015625)"/>
      <path id="Inter-Regular-5b6" d="M 6400 2247 
L 6400 1728 
L 0 1728 
L 0 2247 
L 6400 2247 
z
" transform="scale(0.015625)"/>
      <path id="Inter-Regular-287" d="M 2119 3494 
L 2119 3013 
L 63 3013 
L 63 3494 
L 2119 3494 
z
M 750 0 
L 750 3959 
Q 750 4263 892 4466 
Q 1034 4669 1262 4772 
Q 1491 4875 1744 4875 
Q 1944 4875 2075 4842 
Q 2206 4809 2269 4781 
L 2113 4300 
Q 2069 4316 1998 4334 
Q 1928 4353 1809 4353 
Q 1550 4353 1431 4220 
Q 1313 4088 1313 3834 
L 1313 0 
L 750 0 
z
" transform="scale(0.015625)"/>
     </defs>
     <use xlink:href="#Inter-Regular-2e0"/>
     <use xlink:href="#Inter-Regular-2b1" transform="translate(24.21875 0)"/>
     <use xlink:href="#Inter-Regular-305" transform="translate(48.4375 0)"/>
     <use xlink:href="#Inter-Regular-266" transform="translate(107.515625 0)"/>
     <use xlink:href="#Inter-Regular-1fb" transform="translate(166.796875 0)"/>
     <use xlink:href="#Inter-Regular-354" transform="translate(222.953125 0)"/>
     <use xlink:href="#Inter-Regular-6f1" transform="translate(260.59375 0)"/>
     <use xlink:href="#Inter-Regular-379" transform="translate(288.71875 0)"/>
     <use xlink:href="#Inter-Regular-354" transform="translate(321.4375 0)"/>
     <use xlink:href="#Inter-Regular-266" transform="translate(357.421875 0)"/>
     <use xlink:href="#Inter-Regular-305" transform="translate(415.71875 0)"/>
     <use xlink:href="#Inter-Regular-255" transform="translate(474.796875 0)"/>
     <use xlink:href="#Inter-Regular-6f1" transform="translate(536.03125 0)"/>
     <use xlink:href="#Inter-Regular-59d" transform="translate(564.15625 0)"/>
     <use xlink:href="#Inter-Regular-255" transform="translate(599.5 0)"/>
     <use xlink:href="#Inter-Regular-1fb" transform="translate(660.734375 0)"/>
     <use xlink:href="#Inter-Regular-367" transform="translate(716.890625 0)"/>
     <use xlink:href="#Inter-Regular-29e" transform="translate(769.671875 0)"/>
     <use xlink:href="#Inter-Regular-266" transform="translate(828.796875 0)"/>
     <use xlink:href="#Inter-Regular-255" transform="translate(887.09375 0)"/>
     <use xlink:href="#Inter-Regular-59e" transform="translate(948.328125 0)"/>
     <use xlink:href="#Inter-Regular-6f1" transform="translate(984.796875 0)"/>
     <use xlink:href="#Inter-Regular-5ff" transform="translate(1012.921875 0)"/>
     <use xlink:href="#Inter-Regular-53d" transform="translate(1079.078125 0)"/>
     <use xlink:href="#Inter-Regular-5de" transform="translate(1139.640625 0)"/>
     <use xlink:href="#Inter-Regular-541" transform="translate(1165.765625 0)"/>
     <use xlink:href="#Inter-Regular-6f1" transform="translate(1227.53125 0)"/>
     <use xlink:href="#Inter-Regular-603" transform="translate(1255.65625 0)"/>
     <use xlink:href="#Inter-Regular-6f1" transform="translate(1321.8125 0)"/>
     <use xlink:href="#Inter-Regular-543" transform="translate(1349.9375 0)"/>
     <use xlink:href="#Inter-Regular-5de" transform="translate(1406.578125 0)"/>
     <use xlink:href="#Inter-Regular-543" transform="translate(1433.96875 0)"/>
     <use xlink:href="#Inter-Regular-6f1" transform="translate(1493.296875 0)"/>
     <use xlink:href="#Inter-Regular-397" transform="translate(1521.421875 0)"/>
     <use xlink:href="#Inter-Regular-367" transform="translate(1580.015625 0)"/>
     <use xlink:href="#Inter-Regular-6f1" transform="translate(1632.796875 0)"/>
     <use xlink:href="#Inter-Regular-34b" transform="translate(1660.921875 0)"/>
     <use xlink:href="#Inter-Regular-266" transform="translate(1722.15625 0)"/>
     <use xlink:href="#Inter-Regular-354" transform="translate(1780.453125 0)"/>
     <use xlink:href="#Inter-Regular-6f1" transform="translate(1818.09375 0)"/>
     <use xlink:href="#Inter-Regular-29e" transform="translate(1846.21875 0)"/>
     <use xlink:href="#Inter-Regular-316" transform="translate(1905.34375 0)"/>
     <use xlink:href="#Inter-Regular-393" transform="translate(1965.3125 0)"/>
     <use xlink:href="#Inter-Regular-354" transform="translate(2024.4375 0)"/>
     <use xlink:href="#Inter-Regular-6f1" transform="translate(2062.078125 0)"/>
     <use xlink:href="#Inter-Regular-5b6" transform="translate(2090.203125 0)"/>
     <use xlink:href="#Inter-Regular-6f1" transform="translate(2190.203125 0)"/>
     <use xlink:href="#Inter-Regular-305" transform="translate(2218.328125 0)"/>
     <use xlink:href="#Inter-Regular-316" transform="translate(2277.40625 0)"/>
     <use xlink:href="#Inter-Regular-6f1" transform="translate(2337.375 0)"/>
     <use xlink:href="#Inter-Regular-255" transform="translate(2365.5 0)"/>
     <use xlink:href="#Inter-Regular-354" transform="translate(2426.734375 0)"/>
     <use xlink:href="#Inter-Regular-2b1" transform="translate(2465.359375 0)"/>
     <use xlink:href="#Inter-Regular-287" transform="translate(2489.578125 0)"/>
     <use xlink:href="#Inter-Regular-379" transform="translate(2523.171875 0)"/>
    </g>
   </g>
   <g id="text_18">
    <!-- Two wrist cameras · 107,107 frame pairs · exposure locked at 1/120 s · earlier (26 Aug) firmware build -->
    <g style="fill: #6b6a66" transform="translate(49.683984 34.732447) scale(0.09 -0.09)">
     <defs>
      <path id="Inter-Regular-3d8" d="M 1278 0 
L 219 3494 
L 816 3494 
L 1241 1969 
Q 1328 1656 1428 1261 
Q 1528 866 1625 366 
L 1528 366 
Q 1622 844 1719 1241 
Q 1816 1638 1906 1969 
L 2325 3494 
L 2925 3494 
L 3338 1969 
Q 3425 1647 3520 1251 
Q 3616 856 3709 366 
L 3609 366 
Q 3709 850 3807 1245 
Q 3906 1641 3997 1969 
L 4422 3494 
L 5019 3494 
L 3959 0 
L 3400 0 
L 2947 1581 
Q 2878 1822 2812 2072 
Q 2747 2322 2684 2584 
Q 2622 2847 2556 3119 
L 2681 3119 
Q 2619 2850 2555 2586 
Q 2491 2322 2425 2069 
Q 2359 1816 2291 1581 
L 1838 0 
L 1278 0 
z
" transform="scale(0.015625)"/>
      <path id="Inter-Regular-5e5" d="M 922 1790 
Q 747 1790 623 1913 
Q 500 2037 500 2212 
Q 500 2387 623 2510 
Q 747 2634 922 2634 
Q 1097 2634 1220 2510 
Q 1344 2387 1344 2212 
Q 1344 2037 1220 1913 
Q 1097 1790 922 1790 
z
" transform="scale(0.015625)"/>
      <path id="Inter-Regular-546" d="M 625 0 
L 2694 4097 
L 2694 4134 
L 306 4134 
L 306 4656 
L 3316 4656 
L 3316 4103 
L 1250 0 
L 625 0 
z
" transform="scale(0.015625)"/>
      <path id="Inter-Regular-3e1" d="M 203 0 
L 1581 2009 
L 1578 1578 
L 275 3494 
L 931 3494 
L 1366 2816 
Q 1534 2553 1657 2325 
Q 1781 2097 1913 1884 
L 1619 1884 
Q 1753 2097 1864 2325 
Q 1975 2553 2147 2816 
L 2591 3494 
L 3234 3494 
L 1925 1553 
L 1925 1969 
L 3291 0 
L 2638 0 
L 2125 784 
Q 1959 1041 1839 1261 
Q 1719 1481 1591 1684 
L 1888 1684 
Q 1759 1481 1650 1261 
Q 1541 1041 1372 784 
L 853 0 
L 203 0 
z
" transform="scale(0.015625)"/>
      <path id="Inter-Regular-2d7" d="M 1022 1256 
L 1022 1953 
L 1125 1953 
L 2619 3494 
L 3316 3494 
L 1700 1834 
L 1638 1834 
L 1022 1256 
z
M 494 0 
L 494 4656 
L 1056 4656 
L 1056 0 
L 494 0 
z
M 2703 0 
L 1366 1709 
L 1766 2106 
L 3425 0 
L 2703 0 
z
" transform="scale(0.015625)"/>
      <path id="Inter-Regular-5af" d="M 2163 4875 
L 663 -700 
L 144 -700 
L 1644 4875 
L 2163 4875 
z
" transform="scale(0.015625)"/>
      <path id="Inter-Regular-5a6" d="M 681 2191 
Q 681 2700 786 3258 
Q 891 3816 1072 4333 
Q 1253 4850 1488 5235 
L 2034 5235 
Q 1794 4744 1617 4213 
Q 1441 3682 1347 3164 
Q 1253 2647 1253 2191 
Q 1253 1775 1336 1350 
Q 1419 925 1592 451 
Q 1766 -22 2034 -578 
L 1488 -578 
Q 1091 100 886 803 
Q 681 1507 681 2191 
z
" transform="scale(0.015625)"/>
      <path id="Inter-Regular-2" d="M 163 0 
L 1853 4656 
L 2541 4656 
L 4253 0 
L 3628 0 
L 2641 2763 
Q 2550 3019 2429 3401 
Q 2309 3784 2138 4378 
L 2250 4378 
Q 2081 3778 1957 3389 
Q 1834 3000 1753 2763 
L 794 0 
L 163 0 
z
M 1013 1300 
L 1013 1819 
L 3403 1819 
L 3403 1300 
L 1013 1300 
z
" transform="scale(0.015625)"/>
      <path id="Inter-Regular-292" d="M 1909 -1381 
Q 1522 -1381 1239 -1282 
Q 956 -1184 768 -1021 
Q 581 -859 472 -669 
L 928 -375 
Q 1003 -475 1114 -597 
Q 1225 -719 1414 -805 
Q 1603 -891 1909 -891 
Q 2328 -891 2598 -691 
Q 2869 -491 2869 -59 
L 2869 641 
L 2816 641 
Q 2756 541 2648 403 
Q 2541 266 2339 161 
Q 2138 56 1800 56 
Q 1381 56 1047 254 
Q 713 453 519 834 
Q 325 1216 325 1763 
Q 325 2303 515 2701 
Q 706 3100 1042 3319 
Q 1378 3538 1813 3538 
Q 2150 3538 2351 3427 
Q 2553 3316 2662 3172 
Q 2772 3028 2831 2934 
L 2884 2934 
L 2884 3494 
L 3431 3494 
L 3431 -91 
Q 3431 -541 3228 -827 
Q 3025 -1113 2679 -1247 
Q 2334 -1381 1909 -1381 
z
M 1894 556 
Q 2213 556 2431 701 
Q 2650 847 2762 1120 
Q 2875 1394 2875 1775 
Q 2875 2147 2764 2430 
Q 2653 2713 2434 2873 
Q 2216 3034 1894 3034 
Q 1563 3034 1341 2864 
Q 1119 2694 1008 2409 
Q 897 2125 897 1775 
Q 897 1416 1009 1141 
Q 1122 866 1344 711 
Q 1566 556 1894 556 
z
" transform="scale(0.015625)"/>
      <path id="Inter-Regular-5a7" d="M 300 -578 
Q 578 -6 750 470 
Q 922 947 1001 1369 
Q 1081 1791 1081 2191 
Q 1081 2647 987 3164 
Q 894 3682 719 4213 
Q 544 4744 300 5235 
L 847 5235 
Q 1081 4850 1264 4333 
Q 1447 3816 1550 3256 
Q 1653 2697 1653 2191 
Q 1653 1494 1445 791 
Q 1238 88 847 -578 
L 300 -578 
z
" transform="scale(0.015625)"/>
      <path id="Inter-Regular-242" d="M 2116 -75 
Q 1784 -75 1581 39 
Q 1378 153 1268 298 
Q 1159 444 1100 541 
L 1038 541 
L 1038 0 
L 494 0 
L 494 4656 
L 1056 4656 
L 1056 2934 
L 1100 2934 
Q 1159 3028 1265 3170 
Q 1372 3313 1572 3425 
Q 1772 3538 2113 3538 
Q 2550 3538 2883 3319 
Q 3216 3100 3405 2695 
Q 3594 2291 3594 1738 
Q 3594 1181 3406 775 
Q 3219 369 2886 147 
Q 2553 -75 2116 -75 
z
M 2031 428 
Q 2359 428 2579 604 
Q 2800 781 2911 1079 
Q 3022 1378 3022 1744 
Q 3022 2106 2912 2398 
Q 2803 2691 2583 2862 
Q 2363 3034 2031 3034 
Q 1709 3034 1490 2871 
Q 1272 2709 1161 2420 
Q 1050 2131 1050 1744 
Q 1050 1356 1162 1059 
Q 1275 763 1495 595 
Q 1716 428 2031 428 
z
" transform="scale(0.015625)"/>
     </defs>
     <use xlink:href="#Inter-Regular-19b"/>
     <use xlink:href="#Inter-Regular-3d8" transform="translate(58.296875 0)"/>
     <use xlink:href="#Inter-Regular-316" transform="translate(138.328125 0)"/>
     <use xlink:href="#Inter-Regular-6f1" transform="translate(198.296875 0)"/>
     <use xlink:href="#Inter-Regular-3d8" transform="translate(226.421875 0)"/>
     <use xlink:href="#Inter-Regular-354" transform="translate(308.265625 0)"/>
     <use xlink:href="#Inter-Regular-2b1" transform="translate(346.890625 0)"/>
     <use xlink:href="#Inter-Regular-367" transform="translate(371.109375 0)"/>
     <use xlink:href="#Inter-Regular-379" transform="translate(423.890625 0)"/>
     <use xlink:href="#Inter-Regular-6f1" transform="translate(456.609375 0)"/>
     <use xlink:href="#Inter-Regular-24a" transform="translate(484.734375 0)"/>
     <use xlink:href="#Inter-Regular-1fb" transform="translate(542.84375 0)"/>
     <use xlink:href="#Inter-Regular-2fe" transform="translate(599 0)"/>
     <use xlink:href="#Inter-Regular-266" transform="translate(686.59375 0)"/>
     <use xlink:href="#Inter-Regular-354" transform="translate(744.890625 0)"/>
     <use xlink:href="#Inter-Regular-1fb" transform="translate(782.53125 0)"/>
     <use xlink:href="#Inter-Regular-367" transform="translate(838.6875 0)"/>
     <use xlink:href="#Inter-Regular-6f1" transform="translate(891.46875 0)"/>
     <use xlink:href="#Inter-Regular-5e5" transform="translate(919.59375 0)"/>
     <use xlink:href="#Inter-Regular-6f1" transform="translate(948.40625 0)"/>
     <use xlink:href="#Inter-Regular-53e" transform="translate(976.53125 0)"/>
     <use xlink:href="#Inter-Regular-53d" transform="translate(1017.203125 0)"/>
     <use xlink:href="#Inter-Regular-546" transform="translate(1078.34375 0)"/>
     <use xlink:href="#Inter-Regular-5dd" transform="translate(1122.4375 0)"/>
     <use xlink:href="#Inter-Regular-53e" transform="translate(1142.609375 0)"/>
     <use xlink:href="#Inter-Regular-53d" transform="translate(1183.28125 0)"/>
     <use xlink:href="#Inter-Regular-546" transform="translate(1244.421875 0)"/>
     <use xlink:href="#Inter-Regular-6f1" transform="translate(1301.015625 0)"/>
     <use xlink:href="#Inter-Regular-287" transform="translate(1329.140625 0)"/>
     <use xlink:href="#Inter-Regular-354" transform="translate(1366.15625 0)"/>
     <use xlink:href="#Inter-Regular-1fb" transform="translate(1403.796875 0)"/>
     <use xlink:href="#Inter-Regular-2fe" transform="translate(1459.953125 0)"/>
     <use xlink:href="#Inter-Regular-266" transform="translate(1547.546875 0)"/>
     <use xlink:href="#Inter-Regular-6f1" transform="translate(1605.84375 0)"/>
     <use xlink:href="#Inter-Regular-34b" transform="translate(1633.96875 0)"/>
     <use xlink:href="#Inter-Regular-1fb" transform="translate(1696.1875 0)"/>
     <use xlink:href="#Inter-Regular-2b1" transform="translate(1752.34375 0)"/>
     <use xlink:href="#Inter-Regular-354" transform="translate(1776.5625 0)"/>
     <use xlink:href="#Inter-Regular-367" transform="translate(1814.203125 0)"/>
     <use xlink:href="#Inter-Regular-6f1" transform="translate(1866.984375 0)"/>
     <use xlink:href="#Inter-Regular-5e5" transform="translate(1895.109375 0)"/>
     <use xlink:href="#Inter-Regular-6f1" transform="translate(1923.921875 0)"/>
     <use xlink:href="#Inter-Regular-266" transform="translate(1952.046875 0)"/>
     <use xlink:href="#Inter-Regular-3e1" transform="translate(2008.09375 0)"/>
     <use xlink:href="#Inter-Regular-34b" transform="translate(2062.6875 0)"/>
     <use xlink:href="#Inter-Regular-316" transform="translate(2123.921875 0)"/>
     <use xlink:href="#Inter-Regular-367" transform="translate(2183.890625 0)"/>
     <use xlink:href="#Inter-Regular-393" transform="translate(2236.671875 0)"/>
     <use xlink:href="#Inter-Regular-354" transform="translate(2295.796875 0)"/>
     <use xlink:href="#Inter-Regular-266" transform="translate(2331.78125 0)"/>
     <use xlink:href="#Inter-Regular-6f1" transform="translate(2390.078125 0)"/>
     <use xlink:href="#Inter-Regular-2e0" transform="translate(2418.203125 0)"/>
     <use xlink:href="#Inter-Regular-316" transform="translate(2442.421875 0)"/>
     <use xlink:href="#Inter-Regular-24a" transform="translate(2502.390625 0)"/>
     <use xlink:href="#Inter-Regular-2d7" transform="translate(2559.515625 0)"/>
     <use xlink:href="#Inter-Regular-266" transform="translate(2612.15625 0)"/>
     <use xlink:href="#Inter-Regular-255" transform="translate(2670.453125 0)"/>
     <use xlink:href="#Inter-Regular-6f1" transform="translate(2731.6875 0)"/>
     <use xlink:href="#Inter-Regular-1fb" transform="translate(2759.8125 0)"/>
     <use xlink:href="#Inter-Regular-379" transform="translate(2815.96875 0)"/>
     <use xlink:href="#Inter-Regular-6f1" transform="translate(2848.6875 0)"/>
     <use xlink:href="#Inter-Regular-53e" transform="translate(2876.8125 0)"/>
     <use xlink:href="#Inter-Regular-5af" transform="translate(2917.484375 0)"/>
     <use xlink:href="#Inter-Regular-53e" transform="translate(2953.515625 0)"/>
     <use xlink:href="#Inter-Regular-53f" transform="translate(2994.1875 0)"/>
     <use xlink:href="#Inter-Regular-53d" transform="translate(3055.171875 0)"/>
     <use xlink:href="#Inter-Regular-6f1" transform="translate(3118.265625 0)"/>
     <use xlink:href="#Inter-Regular-367" transform="translate(3146.390625 0)"/>
     <use xlink:href="#Inter-Regular-6f1" transform="translate(3199.171875 0)"/>
     <use xlink:href="#Inter-Regular-5e5" transform="translate(3227.296875 0)"/>
     <use xlink:href="#Inter-Regular-6f1" transform="translate(3256.109375 0)"/>
     <use xlink:href="#Inter-Regular-266" transform="translate(3284.234375 0)"/>
     <use xlink:href="#Inter-Regular-1fb" transform="translate(3343.515625 0)"/>
     <use xlink:href="#Inter-Regular-354" transform="translate(3399.671875 0)"/>
     <use xlink:href="#Inter-Regular-2e0" transform="translate(3438.875 0)"/>
     <use xlink:href="#Inter-Regular-2b1" transform="translate(3463.09375 0)"/>
     <use xlink:href="#Inter-Regular-266" transform="translate(3487.3125 0)"/>
     <use xlink:href="#Inter-Regular-354" transform="translate(3545.609375 0)"/>
     <use xlink:href="#Inter-Regular-6f1" transform="translate(3583.25 0)"/>
     <use xlink:href="#Inter-Regular-5a6" transform="translate(3611.375 0)"/>
     <use xlink:href="#Inter-Regular-53f" transform="translate(3647.84375 0)"/>
     <use xlink:href="#Inter-Regular-545" transform="translate(3708.828125 0)"/>
     <use xlink:href="#Inter-Regular-6f1" transform="translate(3770.84375 0)"/>
     <use xlink:href="#Inter-Regular-2" transform="translate(3798.96875 0)"/>
     <use xlink:href="#Inter-Regular-393" transform="translate(3867.96875 0)"/>
     <use xlink:href="#Inter-Regular-292" transform="translate(3927.09375 0)"/>
     <use xlink:href="#Inter-Regular-5a7" transform="translate(3988.421875 0)"/>
     <use xlink:href="#Inter-Regular-6f1" transform="translate(4024.890625 0)"/>
     <use xlink:href="#Inter-Regular-287" transform="translate(4053.015625 0)"/>
     <use xlink:href="#Inter-Regular-2b1" transform="translate(4090.03125 0)"/>
     <use xlink:href="#Inter-Regular-354" transform="translate(4114.25 0)"/>
     <use xlink:href="#Inter-Regular-2fe" transform="translate(4153.453125 0)"/>
     <use xlink:href="#Inter-Regular-3d8" transform="translate(4241.046875 0)"/>
     <use xlink:href="#Inter-Regular-1fb" transform="translate(4322.890625 0)"/>
     <use xlink:href="#Inter-Regular-354" transform="translate(4379.046875 0)"/>
     <use xlink:href="#Inter-Regular-266" transform="translate(4415.03125 0)"/>
     <use xlink:href="#Inter-Regular-6f1" transform="translate(4473.328125 0)"/>
     <use xlink:href="#Inter-Regular-242" transform="translate(4501.453125 0)"/>
     <use xlink:href="#Inter-Regular-393" transform="translate(4562.6875 0)"/>
     <use xlink:href="#Inter-Regular-2b1" transform="translate(4621.8125 0)"/>
     <use xlink:href="#Inter-Regular-2e0" transform="translate(4646.03125 0)"/>
     <use xlink:href="#Inter-Regular-255" transform="translate(4670.25 0)"/>
    </g>
   </g>
   <g id="text_19">
    <!-- One continuous hour: per-minute median deviation between two cameras -->
    <g style="fill: #1f1f1d" transform="translate(49.683984 18.340625) scale(0.115 -0.115)">
     <defs>
      <path id="Inter-Regular-141" d="M 2450 -63 
Q 1853 -63 1386 226 
Q 919 516 650 1052 
Q 381 1588 381 2325 
Q 381 3066 650 3602 
Q 919 4138 1386 4428 
Q 1853 4719 2450 4719 
Q 3047 4719 3512 4428 
Q 3978 4138 4245 3602 
Q 4513 3066 4513 2325 
Q 4513 1588 4245 1052 
Q 3978 516 3512 226 
Q 3047 -63 2450 -63 
z
M 2450 488 
Q 2866 488 3202 698 
Q 3538 909 3736 1320 
Q 3934 1731 3934 2325 
Q 3934 2925 3736 3336 
Q 3538 3747 3202 3958 
Q 2866 4169 2450 4169 
Q 2031 4169 1693 3956 
Q 1356 3744 1157 3333 
Q 959 2922 959 2325 
Q 959 1731 1157 1322 
Q 1356 913 1693 700 
Q 2031 488 2450 488 
z
" transform="scale(0.015625)"/>
      <path id="Inter-Regular-5e1" d="M 922 -41 
Q 747 -41 623 82 
Q 500 206 500 381 
Q 500 556 623 679 
Q 747 803 922 803 
Q 1097 803 1220 679 
Q 1344 556 1344 381 
Q 1344 206 1220 82 
Q 1097 -41 922 -41 
z
M 922 2487 
Q 747 2487 623 2610 
Q 500 2734 500 2909 
Q 500 3084 623 3207 
Q 747 3331 922 3331 
Q 1097 3331 1220 3207 
Q 1344 3084 1344 2909 
Q 1344 2734 1220 2610 
Q 1097 2487 922 2487 
z
" transform="scale(0.015625)"/>
      <path id="Inter-Regular-3d4" d="M 1503 0 
L 169 3494 
L 784 3494 
L 1528 1422 
Q 1647 1100 1730 779 
Q 1813 459 1903 159 
L 1697 159 
Q 1788 459 1870 779 
Q 1953 1100 2069 1422 
L 2813 3494 
L 3428 3494 
L 2094 0 
L 1503 0 
z
" transform="scale(0.015625)"/>
     </defs>
     <use xlink:href="#Inter-Regular-141"/>
     <use xlink:href="#Inter-Regular-305" transform="translate(76.46875 0)"/>
     <use xlink:href="#Inter-Regular-266" transform="translate(135.546875 0)"/>
     <use xlink:href="#Inter-Regular-6f1" transform="translate(193.84375 0)"/>
     <use xlink:href="#Inter-Regular-24a" transform="translate(221.96875 0)"/>
     <use xlink:href="#Inter-Regular-316" transform="translate(279.09375 0)"/>
     <use xlink:href="#Inter-Regular-305" transform="translate(339.0625 0)"/>
     <use xlink:href="#Inter-Regular-379" transform="translate(398.140625 0)"/>
     <use xlink:href="#Inter-Regular-2b1" transform="translate(430.859375 0)"/>
     <use xlink:href="#Inter-Regular-305" transform="translate(455.078125 0)"/>
     <use xlink:href="#Inter-Regular-393" transform="translate(514.15625 0)"/>
     <use xlink:href="#Inter-Regular-316" transform="translate(573.28125 0)"/>
     <use xlink:href="#Inter-Regular-393" transform="translate(633.25 0)"/>
     <use xlink:href="#Inter-Regular-367" transform="translate(692.375 0)"/>
     <use xlink:href="#Inter-Regular-6f1" transform="translate(745.15625 0)"/>
     <use xlink:href="#Inter-Regular-29e" transform="translate(773.28125 0)"/>
     <use xlink:href="#Inter-Regular-316" transform="translate(832.40625 0)"/>
     <use xlink:href="#Inter-Regular-393" transform="translate(892.375 0)"/>
     <use xlink:href="#Inter-Regular-354" transform="translate(951.5 0)"/>
     <use xlink:href="#Inter-Regular-5e1" transform="translate(989.140625 0)"/>
     <use xlink:href="#Inter-Regular-6f1" transform="translate(1017.953125 0)"/>
     <use xlink:href="#Inter-Regular-34b" transform="translate(1046.078125 0)"/>
     <use xlink:href="#Inter-Regular-266" transform="translate(1107.3125 0)"/>
     <use xlink:href="#Inter-Regular-354" transform="translate(1165.609375 0)"/>
     <use xlink:href="#Inter-Regular-5b3" transform="translate(1199.296875 0)"/>
     <use xlink:href="#Inter-Regular-2fe" transform="translate(1245.296875 0)"/>
     <use xlink:href="#Inter-Regular-2b1" transform="translate(1332.890625 0)"/>
     <use xlink:href="#Inter-Regular-305" transform="translate(1357.109375 0)"/>
     <use xlink:href="#Inter-Regular-393" transform="translate(1416.1875 0)"/>
     <use xlink:href="#Inter-Regular-379" transform="translate(1475.3125 0)"/>
     <use xlink:href="#Inter-Regular-266" transform="translate(1507.0625 0)"/>
     <use xlink:href="#Inter-Regular-6f1" transform="translate(1565.359375 0)"/>
     <use xlink:href="#Inter-Regular-2fe" transform="translate(1593.484375 0)"/>
     <use xlink:href="#Inter-Regular-266" transform="translate(1681.078125 0)"/>
     <use xlink:href="#Inter-Regular-255" transform="translate(1739.375 0)"/>
     <use xlink:href="#Inter-Regular-2b1" transform="translate(1800.609375 0)"/>
     <use xlink:href="#Inter-Regular-1fb" transform="translate(1824.828125 0)"/>
     <use xlink:href="#Inter-Regular-305" transform="translate(1880.984375 0)"/>
     <use xlink:href="#Inter-Regular-6f1" transform="translate(1940.0625 0)"/>
     <use xlink:href="#Inter-Regular-255" transform="translate(1968.1875 0)"/>
     <use xlink:href="#Inter-Regular-266" transform="translate(2029.421875 0)"/>
     <use xlink:href="#Inter-Regular-3d4" transform="translate(2085.765625 0)"/>
     <use xlink:href="#Inter-Regular-2b1" transform="translate(2141.96875 0)"/>
     <use xlink:href="#Inter-Regular-1fb" transform="translate(2166.1875 0)"/>
     <use xlink:href="#Inter-Regular-379" transform="translate(2222.34375 0)"/>
     <use xlink:href="#Inter-Regular-2b1" transform="translate(2255.0625 0)"/>
     <use xlink:href="#Inter-Regular-316" transform="translate(2279.28125 0)"/>
     <use xlink:href="#Inter-Regular-305" transform="translate(2339.25 0)"/>
     <use xlink:href="#Inter-Regular-6f1" transform="translate(2398.328125 0)"/>
     <use xlink:href="#Inter-Regular-242" transform="translate(2426.453125 0)"/>
     <use xlink:href="#Inter-Regular-266" transform="translate(2487.6875 0)"/>
     <use xlink:href="#Inter-Regular-379" transform="translate(2545.984375 0)"/>
     <use xlink:href="#Inter-Regular-3d8" transform="translate(2580.171875 0)"/>
     <use xlink:href="#Inter-Regular-266" transform="translate(2660.203125 0)"/>
     <use xlink:href="#Inter-Regular-266" transform="translate(2718.5 0)"/>
     <use xlink:href="#Inter-Regular-305" transform="translate(2776.796875 0)"/>
     <use xlink:href="#Inter-Regular-6f1" transform="translate(2835.875 0)"/>
     <use xlink:href="#Inter-Regular-379" transform="translate(2864 0)"/>
     <use xlink:href="#Inter-Regular-3d8" transform="translate(2898.1875 0)"/>
     <use xlink:href="#Inter-Regular-316" transform="translate(2978.21875 0)"/>
     <use xlink:href="#Inter-Regular-6f1" transform="translate(3038.1875 0)"/>
     <use xlink:href="#Inter-Regular-24a" transform="translate(3066.3125 0)"/>
     <use xlink:href="#Inter-Regular-1fb" transform="translate(3124.421875 0)"/>
     <use xlink:href="#Inter-Regular-2fe" transform="translate(3180.578125 0)"/>
     <use xlink:href="#Inter-Regular-266" transform="translate(3268.171875 0)"/>
     <use xlink:href="#Inter-Regular-354" transform="translate(3326.46875 0)"/>
     <use xlink:href="#Inter-Regular-1fb" transform="translate(3364.109375 0)"/>
     <use xlink:href="#Inter-Regular-367" transform="translate(3420.265625 0)"/>
    </g>
   </g>
  </g>
 </g>
 <defs>
  <clipPath id="p9a4205e0fe">
   <rect x="49.683984" y="40.340625" width="502.2" height="171.864"/>
  </clipPath>
 </defs>
</svg>
